<?xml version="1.0" encoding="UTF-8"?>
<svg width="256" height="256" viewBox="0 0 256 256" xmlns="http://www.w3.org/2000/svg">
  <!-- Background -->
  <rect width="256" height="256" fill="#1e3a5f" rx="20"/>
  
  <!-- Paddle -->
  <rect x="88" y="210" width="80" height="12" fill="#4a9eff" rx="6"/>
  
  <!-- Ball -->
  <circle cx="128" cy="150" r="12" fill="#ffffff"/>
  
  <!-- Bricks -->
  <rect x="40" y="40" width="40" height="16" fill="#ff6464" rx="2"/>
  <rect x="88" y="40" width="40" height="16" fill="#ff6464" rx="2"/>
  <rect x="136" y="40" width="40" height="16" fill="#ff6464" rx="2"/>
  <rect x="184" y="40" width="40" height="16" fill="#ff6464" rx="2"/>
  
  <rect x="40" y="64" width="40" height="16" fill="#ffb464" rx="2"/>
  <rect x="88" y="64" width="40" height="16" fill="#ffb464" rx="2"/>
  <rect x="136" y="64" width="40" height="16" fill="#ffb464" rx="2"/>
  <rect x="184" y="64" width="40" height="16" fill="#ffb464" rx="2"/>
  
  <rect x="40" y="88" width="40" height="16" fill="#ffff64" rx="2"/>
  <rect x="88" y="88" width="40" height="16" fill="#ffff64" rx="2"/>
  <rect x="136" y="88" width="40" height="16" fill="#ffff64" rx="2"/>
  <rect x="184" y="88" width="40" height="16" fill="#ffff64" rx="2"/>
  
  <rect x="40" y="112" width="40" height="16" fill="#64ff64" rx="2"/>
  <rect x="88" y="112" width="40" height="16" fill="#64ff64" rx="2"/>
  <rect x="136" y="112" width="40" height="16" fill="#64ff64" rx="2"/>
  <rect x="184" y="112" width="40" height="16" fill="#64ff64" rx="2"/>
</svg>
